HIERARCHY
ROOT Hips
{
    OFFSET 0.000000 0.000000 0.000000
    CHANNELS 6 Xposition Yposition Zposition Zrotation Xrotation Yrotation
    JOINT Spine
    {
        OFFSET -0.000000 7.315584 0.000000
        CHANNELS 3 Zrotation Xrotation Yrotation
        JOINT Spine1
        {
            OFFSET -0.000000 21.742830 0.000000
            CHANNELS 3 Zrotation Xrotation Yrotation
            JOINT Neck
            {
                OFFSET -0.000000 21.653538 1.968503
                CHANNELS 3 Zrotation Xrotation Yrotation
                JOINT Head
                {
                    OFFSET -0.000000 12.490022 -1.784289
                    CHANNELS 3 Zrotation Xrotation Yrotation
                    End Site
                    {
                        OFFSET -0.000000 22.303610 0.000000
                    }
                }
            }
            JOINT LeftShoulder
            {
                OFFSET 3.565460 21.440739 -0.045508
                CHANNELS 3 Zrotation Xrotation Yrotation
                JOINT LeftArm
                {
                    OFFSET 5.865323 0.000000 0.000000
                    CHANNELS 3 Zrotation Xrotation Yrotation
                    JOINT LeftForeArm
                    {
                        OFFSET 30.083149 0.000000 0.000000
                        CHANNELS 3 Zrotation Xrotation Yrotation
                        JOINT LeftHand
                        {
                            OFFSET 21.313328 0.000000 0.000000
                            CHANNELS 3 Zrotation Xrotation Yrotation
                            End Site
                            {
                                OFFSET 13.382167 0.000000 0.000000
                            }
                        }
                    }
                }
            }
            JOINT RightShoulder
            {
                OFFSET -3.556053 21.440739 -0.045508
                CHANNELS 3 Zrotation Xrotation Yrotation
                JOINT RightArm
                {
                    OFFSET -5.865323 0.000000 0.000000
                    CHANNELS 3 Zrotation Xrotation Yrotation
                    JOINT RightForeArm
                    {
                        OFFSET -30.083149 0.000000 0.000000
                        CHANNELS 3 Zrotation Xrotation Yrotation
                        JOINT RightHand
                        {
                            OFFSET -21.313328 0.000000 0.000000
                            CHANNELS 3 Zrotation Xrotation Yrotation
                            End Site
                            {
                                OFFSET -13.382167 0.000000 0.000000
                            }
                        }
                    }
                }
            }
        }
    }
    JOINT LeftUpLeg
    {
        OFFSET 8.921444 0.000000 0.000000
        CHANNELS 3 Zrotation Xrotation Yrotation
        JOINT LeftLeg
        {
            OFFSET -0.000000 -39.632927 0.000000
            CHANNELS 3 Zrotation Xrotation Yrotation
            JOINT LeftFoot
            {
                OFFSET -0.000000 -38.058365 0.000000
                CHANNELS 3 Zrotation Xrotation Yrotation
                JOINT LeftToeBase
                {
                    OFFSET -0.000000 -5.798938 13.382167
                    CHANNELS 3 Zrotation Xrotation Yrotation
                    End Site
                    {
                        OFFSET -0.000000 0.000000 3.568577
                    }
                }
            }
        }
    }
    JOINT RightUpLeg
    {
        OFFSET -8.921444 0.000000 0.000000
        CHANNELS 3 Zrotation Xrotation Yrotation
        JOINT RightLeg
        {
            OFFSET -0.000000 -39.632927 0.000000
            CHANNELS 3 Zrotation Xrotation Yrotation
            JOINT RightFoot
            {
                OFFSET -0.000000 -38.058365 0.000000
                CHANNELS 3 Zrotation Xrotation Yrotation
                JOINT RightToeBase
                {
                    OFFSET -0.000000 -5.798938 13.382167
                    CHANNELS 3 Zrotation Xrotation Yrotation
                    End Site
                    {
                        OFFSET -0.000000 0.000000 3.568577
                    }
                }
            }
        }
    }
}
MOTION
Frames:    11
Frame Time:    0.004000
-22.964123    119.471786    -48.087002    -2.546557    0.222676    8.911052    1.988223    8.109729    -1.005063    2.159954    3.927380    -0.938170    -2.423243    26.154308    1.416986    -0.701019    1.405152    1.150234    -6.159708    12.587914    -7.715759    -46.943058    51.153217    -8.956437    -2.084192    -13.751222    -19.181593    4.351456    -13.972965    3.244679    7.013641    12.321910    -5.265814    40.967922    57.180840    12.350574    -2.588997    -7.473155    28.814245    5.584687    -6.715415    2.006852    -1.040289    -31.649372    2.849171    19.994991    67.425545    -17.518326    -5.257651    -16.158581    -1.177073    0.000000    0.000000    0.000000    2.914883    -15.192906    -0.746951    3.757004    27.063087    4.332590    -6.889264    -15.327796    -12.816516    0.000000    0.000000    0.000000    
-22.927071    119.626526    -47.835766    -2.389650    0.140103    9.009171    1.871087    7.972043    -1.004853    2.159790    3.976429    -0.949459    -2.531389    26.430113    1.412915    -0.557159    1.317784    1.146922    -6.304471    12.562872    -7.628243    -47.386688    50.614380    -8.456030    -2.382896    -13.537531    -18.913443    4.172937    -13.812085    3.125324    7.048605    12.414116    -5.341158    40.973785    57.177544    12.371860    -2.487040    -7.307352    28.714643    5.734785    -6.580984    1.887808    -1.381854    -31.386696    2.663073    18.754259    66.099648    -17.215860    -4.770132    -16.230608    0.258146    0.000000    0.000000    0.000000    2.758542    -14.560003    -0.725875    3.783919    26.384415    4.258982    -6.624320    -15.213460    -12.866886    0.000000    0.000000    0.000000    
-22.887951    119.778915    -47.570168    -2.231403    0.060415    9.050066    1.760807    7.815269    -0.974533    2.113938    4.054571    -0.929073    -2.519041    26.634188    1.385412    -0.562330    1.330146    1.113701    -6.327425    12.511250    -7.567477    -47.942795    50.616241    -7.889712    -2.525588    -13.702447    -18.836435    4.375143    -13.983556    3.375142    7.140146    12.409689    -5.423519    41.001984    57.372639    12.300538    -2.443746    -7.208662    28.631878    5.925069    -6.492326    1.879943    -1.666129    -31.128736    2.851972    18.223196    64.622612    -16.934439    -4.284763    -15.894378    0.538099    0.000000    0.000000    0.000000    2.633606    -13.938408    -0.683114    3.762141    25.721661    4.112449    -6.498191    -14.990514    -12.799151    0.000000    0.000000    0.000000    
-22.842899    119.938751    -47.298378    -2.048742    -0.074175    9.143615    1.635635    7.699708    -0.964378    2.079340    4.148174    -0.929687    -2.542212    26.722303    1.364756    -0.416248    1.528383    1.107542    -6.388812    12.680171    -7.469553    -48.173069    50.180138    -7.658363    -2.767210    -13.649774    -18.696104    4.440440    -13.960606    3.481214    7.163722    12.461909    -5.508071    40.993507    57.598396    12.406239    -2.406712    -7.173191    28.422516    6.122272    -6.467230    1.887202    -1.979481    -30.726170    2.642673    16.920425    63.084801    -15.596709    -4.198068    -15.753352    0.474447    0.000000    0.000000    0.000000    2.472753    -13.234639    -0.717382    3.731386    25.031994    3.972444    -6.619842    -14.582915    -12.631349    0.000000    0.000000    0.000000    
-22.801575    120.080063    -47.047382    -1.901328    -0.178093    9.245609    1.573771    7.587091    -0.978139    2.009722    4.198250    -0.947407    -2.605316    26.981325    1.315659    -0.347573    1.510090    1.052031    -6.502394    12.638090    -7.387009    -48.590527    50.033943    -7.126310    -2.929081    -13.701592    -18.568520    4.419569    -14.032902    3.553174    7.213355    12.470802    -5.543407    41.106491    57.665504    12.323833    -2.373689    -7.113812    28.253075    6.710936    -6.393996    2.164289    -2.278997    -30.368774    2.454007    15.774284    61.593964    -14.247324    -4.467120    -15.692009    0.161356    0.000000    0.000000    0.000000    2.350644    -12.618750    -0.771663    3.681654    24.412888    3.836255    -6.586192    -14.326320    -12.398838    0.000000    0.000000    0.000000    
-22.758280    120.221115    -46.791847    -1.728040    -0.254651    9.336548    1.447416    7.442794    -0.967983    1.983037    4.263812    -0.947654    -2.639473    27.166771    1.324913    -0.257943    1.524119    1.064834    -6.538874    12.539455    -7.312379    -49.216587    49.997772    -6.522124    -2.855062    -13.817660    -18.382757    4.130669    -14.139913    3.588571    7.287149    12.510989    -5.630520    41.053879    57.861279    12.354097    -2.319694    -7.087626    28.162500    6.807411    -6.400380    1.843315    -2.596904    -30.004938    2.266722    14.736442    60.033176    -13.136995    -4.642355    -15.490726    0.169972    0.000000    0.000000    0.000000    2.190945    -12.026927    -0.826969    3.643088    23.810806    3.753362    -6.459565    -14.208852    -12.073866    0.000000    0.000000    0.000000    
-22.724434    120.363594    -46.529106    -1.603275    -0.328233    9.457974    1.358276    7.265568    -0.968988    1.975678    4.344290    -0.957662    -2.569633    27.035479    1.346514    -0.349396    2.106228    1.088122    -6.586126    12.625551    -7.226618    -49.445354    49.932926    -6.269811    -3.029619    -13.937681    -18.263901    4.125110    -14.281764    3.658527    7.242265    12.491240    -5.668577    41.261471    58.005436    12.223372    -2.226706    -7.033257    28.096832    6.954902    -6.368700    1.833271    -2.852164    -29.632153    2.073814    13.766600    58.447811    -11.993948    -4.913939    -15.482134    -0.187012    0.000000    0.000000    0.000000    2.091328    -11.413644    -0.886298    3.597000    23.173323    3.860225    -6.744943    -13.648952    -12.567990    0.000000    0.000000    0.000000    
-22.689531    120.487831    -46.280239    -1.463743    -0.392700    9.521798    1.253134    7.107183    -0.953951    1.954951    4.400195    -0.951203    -2.651592    27.560335    1.272463    -0.211638    1.591431    1.004548    -6.805320    12.760068    -7.072724    -49.490421    49.815422    -6.036759    -3.167721    -14.134802    -18.145067    4.088575    -14.494987    3.744615    7.342444    12.539488    -5.718138    41.281738    57.985203    12.169818    -2.155404    -6.939910    27.980375    7.447009    -6.277169    1.991509    -2.994027    -29.329590    1.733875    12.357542    57.122013    -10.983417    -4.772930    -15.258863    0.068835    0.000000    0.000000    0.000000    1.980856    -10.860679    -0.910931    3.549796    22.599030    3.784437    -6.798910    -13.427716    -12.273461    0.000000    0.000000    0.000000    
-22.645603    120.609215    -46.024300    -1.337228    -0.490306    9.605693    1.209386    6.976092    -0.941259    1.851302    4.448470    -0.939491    -2.556499    27.457369    1.285681    -0.203413    2.158291    1.033535    -6.807645    12.744823    -7.006141    -49.860001    49.700516    -5.636592    -3.329719    -14.220411    -18.025331    4.070445    -14.599457    3.836887    7.431646    12.577715    -5.760787    41.311859    58.134010    12.117956    -2.150921    -6.866115    27.881559    7.740323    -6.191514    2.136592    -3.208022    -28.914194    1.495645    11.449147    55.619591    -10.028150    -4.788276    -15.053425    0.126255    0.000000    0.000000    0.000000    1.869567    -10.209576    -0.614887    3.664893    21.884697    3.275571    -6.314192    -13.347009    -11.994537    0.000000    0.000000    0.000000    
-22.615978    120.731308    -45.776672    -1.245066    -0.535910    9.766399    1.135876    6.803449    -0.963468    1.884288    4.499059    -0.970045    -2.606377    27.527241    1.224721    -0.142953    2.388739    0.970605    -6.842680    12.722898    -6.929582    -50.278301    49.337898    -5.222544    -3.522338    -14.132732    -17.868637    3.964452    -14.537821    3.907507    7.370811    12.522325    -5.786598    41.512573    58.339420    11.972596    -2.079613    -6.782502    27.804308    7.513030    -6.145208    1.920466    -3.415661    -28.546911    1.182638    10.415923    54.069031    -9.260697    -4.844698    -15.077404    0.493598    0.000000    0.000000    0.000000    1.796247    -9.652522    -0.668426    3.634064    21.253260    3.074375    -5.802375    -13.340473    -11.833909    0.000000    0.000000    0.000000    
-22.565838    120.851639    -45.507931    -1.078981    -0.660274    9.777626    1.029613    6.696980    -0.922518    1.851156    4.563678    -0.936074    -2.631981    27.684273    1.214076    -0.108103    2.458660    0.956828    -6.944263    12.683136    -6.849538    -50.626740    49.190872    -4.767106    -3.639597    -14.205384    -17.748837    3.710224    -14.636199    3.799884    7.430788    12.611421    -5.867399    41.483612    58.309078    12.018908    -1.959998    -6.723071    27.731815    7.779802    -6.108993    1.965033    -3.611863    -28.006876    1.033224    9.635416    52.450871    -8.450821    -4.812380    -14.936192    0.304022    0.000000    0.000000    0.000000    1.667793    -9.017320    -0.628004    3.606614    20.661261    2.940375    -5.755149    -13.101354    -11.749535    0.000000    0.000000    0.000000    
